<?xml version="1.0" standalone="no"?><!DOCTYPE svg PUBLIC "-//W3C//DTD SVG 1.1//EN" "http://www.w3.org/Graphics/SVG/1.1/DTD/svg11.dtd"><svg t="1691819468349" class="icon" viewBox="0 0 1024 1024" version="1.1" xmlns="http://www.w3.org/2000/svg" p-id="2011" xmlns:xlink="http://www.w3.org/1999/xlink" width="64" height="64"><path d="M947.106726 690.572048V151.629419H76.893274v538.942629h421.515173V845.182358h-284.489356v27.194363h596.160795V845.182358H525.602809V690.572048h421.503917zM104.087637 178.823781h815.824726v484.553905H104.087637V178.823781z" p-id="2012"></path><path d="M425.762917 347.680561l-57.70833 144.04365-1.115404 2.801812h17.806551l16.584724-42.583864h65.99404l16.584724 42.583864h17.819854l-58.823734-146.845462h-17.142425z m35.970236 89.774652h-54.786791l27.486005-69.725014 27.300786 69.725014zM571.280128 347.680561h-60.017932V494.526023h16.279779v-60.575633h43.539632c33.04972 0 49.820686-14.553461 49.820685-43.234687 0-28.54922-16.70445-43.035142-49.622164-43.035142z m33.142841 43.035142c0 9.467629-2.65548 16.624632-7.847735 21.219277-5.723352 4.726651-14.500249 7.117095-26.092261 7.117095h-42.942022v-56.473199h42.942022c11.685133 0 20.448728 2.456958 26.065655 7.290033 5.232165 4.500501 7.874341 11.525498 7.874341 20.846794zM639.809921 347.680561h16.279778V494.526023h-16.279778z" p-id="2013"></path></svg>